<?xml version="1.0" encoding="UTF-8"?>
<svg id="Ebene_1" xmlns="http://www.w3.org/2000/svg" version="1.1" viewBox="0 0 1024 1024">
  <!-- Generator: Adobe Illustrator 30.2.1, SVG Export Plug-In . SVG Version: 2.1.1 Build 1)  -->
  <defs>
    <style>
      .st0 {
        fill: #eea84f;
      }

      .st1 {
        fill: #fefefe;
      }
    </style>
  </defs>
  <path class="st0" d="M300.18,306.72c41.61-2.29,86.74,12.72,120.84,36.1-7.47,7.67-15.16,11.75-24.93,15.58-33.29,13.05-59.27-.61-92.83-.08-26.99.69-53.33,8.39-76.44,22.36-34.83,21.1-59.96,55.05-69.98,94.52-9.51,38.02-2.28,82.32,17.97,115.79,29.98,49.88,85.23,78.93,143.32,75.35,31.25-1.84,39.86-10.6,75.14-2.02,11.44,3.48,20.99,7.35,29.59,15.83-5.71,5.01-14.28,10.08-20.99,13.66-25.96,13.96-54.69,21.99-84.13,23.53-53.98,3.1-106.97-15.44-147.24-51.52-40.4-36.6-64.79-87.61-67.91-142.03-3.21-54.84,15.63-108.68,52.33-149.55,29.48-33.03,68.94-55.53,112.37-64.07,11.41-2.15,21.34-2.9,32.87-3.47Z"/>
  <path class="st1" d="M922.54,519.96c-.02-12.19-.26-24.37-.09-36.56.05-3.93.19-7.9-.28-11.8-.87-7.02-4.19-8.48-10.59-8.05-3.61,1.73-5.6,3.7-5.92,7.85-.77,9.95-.1,20.6-.18,30.57-9.49-6.74-16.79-8.61-28.43-7.13-31.84,4.03-43.16,45.79-19.3,66.57,17.65,13.66,42.8,12.61,56.65-5.83,3.65-4.85,6.15-10.46,7.32-16.41,1.21-6.27.83-12.84.82-19.21ZM888.18,554.32c-12.09,2.37-23.82-5.53-26.16-17.64-2.35-12.1,5.58-23.81,17.7-26.12,12.07-2.3,23.72,5.6,26.06,17.66,2.33,12.07-5.54,23.74-17.6,26.1Z"/>
  <path class="st1" d="M256.36,478.67c14.77-2.43,39.86,3.97,52.15,11.39,34.18,20.64-7.15,39.99-27.47,43.09-21.34,3.26-33.01,2.1-50.59-9.78-4.44-3.58-9.09-7.88-14.51-9.83-13.89-4.99-44.37,6.32-52.27,1.45-1.74-1.07-2.87-2.72-3.29-4.71-.68-3.21-.25-7.48,1.67-10.21,3.72-5.31,26.74-.52,33.03.04,5.67.5,11.73.87,17.41.5,8.11-.53,17.49-11.41,24.76-15.58,6.06-3.48,12.23-5.32,19.11-6.36Z"/>
  <path class="st0" d="M196.21,449.95c7.1-12.2,20.71-19.66,29.96-29.6,7.37-7.93,12.97-19.77,21.2-27.06,4.06-3.6,8.9-6.21,14.13-7.64,9.89-2.68,90.64-.62,95.14,2.33.8.52,1.08.85,1.48,1.68-.22.77-.1,1.06-.86,1.49-4.22,2.38-76.14,1.46-86.95,1.67l-.02,8.74c19.37.16,38.74.44,58.11.85,8.85.19,17.71.37,26.54.78,1.83.08,3.27.82,3.75,2.67-2.29,3.74-14.86,2.82-19.18,3-23.1.95-46.29.78-69.42.89v9.16c18.56-.04,37.12.14,55.67.54,8.88.14,17.78.18,26.65.52,2.03.08,4.49.64,5.68,2.39-.04,1.87.25,1.07-.8,2.5-3.86,1.71-77.82,1.77-87.04,1.76l.05,8.89c18.96,0,37.93.14,56.89.41,4.84.06,28.56-.2,30.57,1.51.19,1.36.4,1.76-.14,2.99-4.55,2.48-81.28,4.97-91.74,4.82-4.39-.06-8.7-.16-12.94-1.41-8.53-2.51-21.46-12.8-30.17-8.29-7.41,3.85-13.66,14.04-17.86,20.98-1.83-1.5-5.3-4.1-7.23-5.48l-.73-.52-.77-.57Z"/>
  <path class="st1" d="M746.33,528.62c-1.95-21.32-20.8-37.03-42.12-35.1-21.36,1.93-37.1,20.82-35.14,42.17,1.95,21.35,20.85,37.07,42.21,35.09,21.32-1.97,37.01-20.84,35.05-42.16ZM710.67,554.22c-12.2,1.56-23.33-7.1-24.83-19.3-1.49-12.2,7.22-23.29,19.43-24.72,12.12-1.42,23.11,7.21,24.59,19.33,1.48,12.11-7.09,23.15-19.2,24.69Z"/>
  <path class="st1" d="M834.03,526.7c-3.08-21.17-22.73-35.84-43.89-32.76-21.17,3.07-35.83,22.72-32.76,43.88,3.08,21.16,22.71,35.83,43.88,32.77,21.17-3.07,35.84-22.72,32.77-43.89ZM798.18,554.34c-12.25,1.37-23.28-7.47-24.62-19.72-1.33-12.26,7.54-23.27,19.8-24.56,12.21-1.29,23.16,7.54,24.48,19.74,1.33,12.2-7.46,23.18-19.66,24.54Z"/>
  <path class="st1" d="M190.92,524.71c.35-.06,3-.39,3.11-.07,2.34,7.27,3.5,15.19,6.09,22.49,17.5,49.39,66.45,80.97,118.38,79.92,2.99.18,9.45-1.15,12.02-.49,13.43,3.44,11.41,19.67-4.05,20.12-34.42,2.82-68.64-7.34-95.96-28.46-29.84-22.8-47.25-55.41-52.21-92.4,4.21-.34,8.41-.71,12.62-1.11Z"/>
  <path class="st1" d="M480,526.91c.04-8.6-3.43-16.85-9.62-22.83-7.5-7.23-17.93-10.56-28.25-9.38-10.44,1.17-20.46,4.73-27.1,13.37-12.38,16.14-10.41,42.17,6.18,55.2,12.8,10.05,38.38,10.61,50.37-1.74,3.31-3.41.87-8.82-2.96-11.3-.29-.19-.59-.37-.89-.54l-.58-.12c-6.47-1.3-8.58,2.62-14.36,4.78-13.29,4.95-22.37-1.87-27-14.26,8.5.04,17.01.14,25.51.27,11.32.18,28.78,2.87,28.7-13.44ZM425.47,526.21c3.02-8.8,7.79-13.64,17.04-15.61,12.18-.69,18.59,4.61,21.24,16.18-5.08-.02-10.21-.2-15.33-.25-7.75-.02-15.21.04-22.95-.32Z"/>
  <path class="st1" d="M347.33,472.16c8.06-.34,56.09-1.68,60.08,1.44,1.73,1.35,3.04,4.2,3.15,6.37.12,2.46-1.39,5.13-3.15,6.74-1.11,1.02-2.37,1.55-3.84,1.79-5.31.83-11.09.36-16.47.31l-28.63-.3-.03,25.91,30.94-.15c9.05.03,11.52,1.69,11.01,10.71-.56.99-1.21,2.11-2.01,2.92-4.17,4.26-33.01,2.56-39.9,2.53-.1,10.49.46,21.21-.18,31.61-.34,5.51-5.16,10.1-10.71,8.82-3.86-.89-5.24-3.33-7.03-6.48-.33-11.46-.99-82.53.91-87.34,1.06-2.7,3.34-3.81,5.87-4.87Z"/>
  <path class="st1" d="M610.41,472.16c17.57-.94,37.64.31,55.37.26,8.7-.03,10.13,16.06-1.17,16.45-4.81.16-10.59.33-15.62.32l-28.14-.07c-.14,8.31-.1,16.8-.14,25.12,11.66-.01,23.34-.12,35,.1,6.61.14,8.11,4.77,7.51,10.5-3.85,7.8-14.14,5.83-21.68,5.74l-20.96-.06c-.17,11.24.88,23.56-.59,34.55-.98,7.36-16.37,7.36-16.48-.97-.38-27.53-.15-55.11-.12-82.65,0-5.38,2.04-7.81,7.02-9.31Z"/>
  <path class="st1" d="M498.98,463.51c.37-.02.74-.04,1.1-.05,6.09-.15,9.8,2.51,10.13,8.74.48,9.03.24,18.27.24,27.32v54.33l.58.14c9.48,2.3,13,10.26,3.1,15.16-3.52.62-7.32.59-10.8-.27-3.43-.85-6.7-2.62-8.42-5.84-1.15-2.16-1.28-6.28-1.38-8.73-.4-9.43-.75-81.86.49-85.87.8-2.59,2.69-3.69,4.95-4.92Z"/>
  <path class="st1" d="M538.21,463.58c1.33.19,2.72.35,3.98.83,2.08.79,3.93,2.4,4.68,4.53,1.28,3.6,1.33,94.41-.31,97.5-1.3,2.45-4.01,3.38-6.49,4.12-1.42-.03-2.72-.17-4.09-.58-2.1-.62-3.8-1.92-4.78-3.91-1.28-2.6-1.29-94.89-.04-97.61,1.34-2.89,4.17-4.02,7.04-4.9Z"/>
  <path class="st1" d="M573.46,495.09c1.52-.06,3.25-.02,4.73.37,2.21.59,4.08,2.1,5.01,4.22,1.35,3.09,1.84,62.1.31,65.99-1.06,2.71-3.38,3.82-5.88,4.93-7.46.29-10.35-2.02-10.45-9.73-.2-13.91-.17-27.89-.2-41.79-.01-6.23-.35-12.74.66-18.82.39-2.39,4.07-4.31,5.82-5.17Z"/>
  <path class="st1" d="M196.21,449.95l.77.57.73.52c1.93,1.38,5.4,3.98,7.23,5.48-6.65,12.83-8.69,21.3-11.51,35.2-4.73-.93-8.95-1.44-13.7-2.11,4.36-15.21,7.68-26.35,16.48-39.66Z"/>
  <path class="st1" d="M572.21,463.63c3.3-1.18,6.98-.44,9.58,1.91,2.6,2.35,3.7,5.94,2.86,9.34-.83,3.4-3.46,6.07-6.86,6.96-4.93,1.28-10.01-1.55-11.51-6.43-1.49-4.88,1.11-10.07,5.92-11.78Z"/>
</svg>