<svg xmlns="http://www.w3.org/2000/svg" height="1024" preserveAspectRatio="none" style="display: block;" version="1.1" viewBox="0 0 2048 2048" width="1024">
<path d="M 0 0 L 2048 0 L 2048 2048 L 0 2048 L 0 0 z" fill="rgb(13,10,10)" transform="translate(0,0)"></path>
<path d="M 711.547 584.328 C 729.537 582.151 744.128 587.751 758.51 598.292 C 780.934 614.729 787.644 628.302 798.14 652.955 C 806.675 673.002 809.246 681.361 815.102 702.966 C 825.08 739.78 822.94 791.481 853.846 817.171 C 857.971 820.599 865.841 823.45 870.893 823.766 C 888.435 824.86 905.79 821.502 923.674 823.031 C 946.547 824.987 967.078 837.648 990.054 829.154 C 1002.99 824.372 1011.86 814.706 1022.42 806.197 C 1044.16 788.673 1069.89 774.234 1097.74 769.839 C 1137.77 763.52 1175.38 778.763 1207.36 801.805 C 1230.71 743.581 1228.52 677.012 1264.67 623.826 C 1292.54 582.821 1344.78 576.188 1383.95 605.497 C 1400.64 618.064 1411.58 636.799 1414.34 657.506 C 1421.02 707.408 1346.09 781.468 1317.45 819.398 C 1361.12 841.541 1383.78 868.883 1407.26 911.335 C 1417 928.928 1403.99 935.942 1388.37 929.784 C 1384.61 928.304 1375.64 909.04 1372.28 903.645 C 1357.31 879.605 1331.34 851.727 1303.57 842.32 L 1302.17 841.851 C 1285.81 866.844 1268.87 891.208 1257.9 919.203 C 1254.43 928.045 1246.03 938.295 1235.26 935.479 C 1217.63 930.868 1232.54 908.745 1237.05 899.317 C 1251.37 869.361 1268.3 840.535 1288.13 813.867 C 1320.98 768.826 1366.31 728.251 1386.75 675.558 C 1391.34 663.334 1385.62 648.714 1379.33 637.939 C 1378.94 637.346 1378.55 636.76 1378.15 636.182 C 1363.71 615.47 1333.79 605.742 1311.07 618.237 C 1255.92 648.555 1257.84 733.687 1241.41 787.167 C 1233.99 811.323 1224.37 827.884 1212.68 849.4 C 1204.29 864.815 1202.05 875.865 1187.3 886.319 C 1183.09 877.23 1181.48 873.27 1175.6 865.2 L 1194.42 824.966 C 1183.7 816.888 1173.7 811.868 1162.05 805.954 C 1117.69 783.443 1079.89 795.461 1041.8 824.096 C 1023.94 837.517 1016.56 849.711 993.746 855.92 C 964.345 863.923 946.92 850.832 917.824 849.087 C 903.898 847.385 887.328 851.46 873.672 850.396 C 804.827 845.028 802.385 770.177 792.374 719.756 C 784.226 678.72 760.62 614.76 713.612 611.097 C 703.132 610.28 681.945 620.116 674.502 628.308 C 647.247 659.921 663.714 695.573 684.606 723.465 C 712.538 760.753 740.77 790.226 769.284 826.311 C 770.936 828.4 775.237 835.437 774.639 838.834 C 770.721 845.55 758.011 848.234 750.487 851.179 C 743.263 854.007 734.974 856.537 727.315 859.668 C 719.413 862.91 711.68 866.55 704.146 870.573 C 666.062 891.26 676.152 922.878 665.683 930.12 C 662.358 932.42 656.405 932.537 652.649 931.383 C 649.956 930.556 647.816 928.767 646.495 926.257 C 641.947 917.619 645.412 904.823 647.998 895.956 C 655.633 869.773 680.191 850.95 704.076 840.147 C 713.671 835.807 724.079 832.697 733.276 827.585 C 733.549 827.433 733.818 827.275 734.09 827.119 C 727.658 816.677 718.749 807.675 711.056 798.007 C 684.825 764.098 642.409 725.467 635.199 681.65 C 625.996 625.727 658.311 592.039 711.547 584.328 z" fill="rgb(243,140,80)" transform="translate(0,0)"></path>
<path d="M 413.854 1182.19 C 431.553 1180.98 430.161 1184.48 435.015 1201.25 C 446.02 1239.28 461.675 1274.52 479.849 1309.57 C 530.07 1405.24 604.794 1485.85 696.382 1543.17 C 834.932 1630.31 1002.47 1658.71 1162 1622.1 C 1366.59 1575.35 1540.22 1419.64 1606.1 1220.08 C 1609.22 1210.64 1613.54 1193.95 1618.49 1186.08 C 1622.93 1183.37 1625.03 1183.92 1630.07 1184.3 C 1646.98 1185.57 1639.47 1200.08 1635.93 1210.93 C 1590.28 1352.19 1505.95 1470.56 1381.62 1553.41 C 1239.04 1649.67 1063.73 1684.5 895.185 1650.05 C 758.546 1621.93 634.749 1550.16 542.448 1445.56 C 482.964 1377.88 437.417 1295.87 411.214 1209.73 C 407.841 1198.65 401.558 1189.13 413.854 1182.19 z" fill="rgb(243,140,80)" transform="translate(0,0)"></path>
<path d="M 994.747 385.439 C 995.103 385.408 995.46 385.376 995.817 385.344 C 1157.12 379.574 1313.57 433.43 1436.24 536.463 C 1520.34 606.161 1584.79 696.597 1623.24 798.834 C 1629.24 814.68 1637.4 837.874 1640.48 854.779 C 1640.59 858.26 1640.51 859.307 1638.07 861.748 C 1618.29 881.541 1612.68 846.147 1608.8 834.17 C 1585.25 761.486 1546.07 691.372 1497.24 632.71 C 1462.43 591.288 1422.27 554.672 1377.82 523.824 C 1279.98 455.46 1184.6 422.946 1066.25 412.22 C 985.667 406.553 904.758 416.767 828.113 442.282 C 674.398 493.895 546.991 603.625 473.159 747.989 C 461.274 771.382 450.787 795.459 441.751 820.093 C 438.061 830.04 436.026 840.231 431.907 849.966 C 425.936 864.083 407.698 855.181 407.535 846.69 C 407.409 840.188 415.059 819.341 417.468 812.498 C 445.353 734.738 487.874 663.039 542.733 601.277 C 658.395 471.667 821.24 393.908 994.747 385.439 z" fill="rgb(243,140,80)" transform="translate(0,0)"></path>
<path d="M 1675.29 891.337 C 1721.83 886.455 1706.87 909.839 1703.25 944.176 C 1697.56 998.221 1694.02 1053.41 1707.99 1106.68 C 1715.06 1133.63 1698.23 1135.55 1676.51 1140.77 C 1634.02 1149.75 1590.37 1154.19 1554.17 1125.73 C 1551.52 1123.37 1548.97 1120.89 1546.53 1118.3 C 1494.75 1063.41 1530.09 959.771 1609.92 961.358 C 1629.44 961.746 1644.16 969.573 1657.39 983.699 C 1653.51 962.319 1648.03 943.128 1642.45 922.198 C 1636.32 899.162 1658.56 893.861 1675.29 891.337 z" fill="rgb(254,254,254)" transform="translate(0,0)"></path>
<path d="M 1612.94 1006.8 C 1639.45 1004.77 1662.59 1024.58 1664.67 1051.08 C 1666.75 1077.58 1646.99 1100.77 1620.49 1102.9 C 1593.92 1105.04 1570.65 1085.21 1568.57 1058.63 C 1566.48 1032.05 1586.36 1008.83 1612.94 1006.8 z" fill="rgb(13,10,10)" transform="translate(0,0)"></path>
<path d="M 1612.67 1023.18 C 1651.49 1021.87 1659.61 1072.92 1623.38 1085.21 C 1607.38 1085.62 1592.78 1082.73 1588.97 1064 C 1584.89 1043.92 1591.96 1028.79 1612.67 1023.18 z" fill="rgb(243,140,80)" transform="translate(0,0)"></path>
<path d="M 1410.85 961.635 C 1461.59 958.127 1505.63 996.266 1509.41 1046.99 C 1513.19 1097.71 1475.28 1141.95 1424.58 1145.99 C 1373.5 1150.07 1328.85 1111.82 1325.05 1060.72 C 1321.24 1009.62 1359.73 965.17 1410.85 961.635 z" fill="rgb(254,254,254)" transform="translate(0,0)"></path>
<path d="M 1408.79 1007.42 C 1434.3 1003.09 1458.47 1020.32 1462.68 1045.84 C 1466.9 1071.37 1449.55 1095.46 1424.01 1099.55 C 1398.63 1103.62 1374.74 1086.42 1370.55 1061.06 C 1366.36 1035.7 1383.45 1011.73 1408.79 1007.42 z" fill="rgb(13,10,10)" transform="translate(0,0)"></path>
<path d="M 1416.2 1024.69 C 1431.95 1024.52 1444.91 1037.05 1445.26 1052.79 C 1445.61 1068.54 1433.23 1081.64 1417.49 1082.17 C 1407.15 1082.52 1397.42 1077.29 1392.01 1068.46 C 1386.6 1059.64 1386.35 1048.59 1391.36 1039.53 C 1396.36 1030.48 1405.85 1024.81 1416.2 1024.69 z" fill="rgb(243,140,80)" transform="translate(0,0)"></path>
<path d="M 1204.62 962.204 C 1255.56 955.651 1302.06 991.885 1308.16 1042.88 C 1314.26 1093.87 1277.62 1140.05 1226.57 1145.69 C 1176.17 1151.27 1130.69 1115.18 1124.67 1064.83 C 1118.64 1014.47 1154.33 968.676 1204.62 962.204 z" fill="rgb(254,254,254)" transform="translate(0,0)"></path>
<path d="M 1208.51 1007.59 C 1233.8 1002.73 1258.24 1019.33 1263.05 1044.63 C 1267.87 1069.93 1251.24 1094.34 1225.93 1099.12 C 1200.67 1103.89 1176.32 1087.3 1171.52 1062.05 C 1166.71 1036.8 1183.26 1012.43 1208.51 1007.59 z" fill="rgb(13,10,10)" transform="translate(0,0)"></path>
<path d="M 1210.71 1025.49 C 1226.25 1021.78 1241.83 1031.45 1245.41 1047.01 C 1248.99 1062.58 1239.18 1078.08 1223.59 1081.53 C 1208.18 1084.93 1192.91 1075.27 1189.37 1059.89 C 1185.84 1044.51 1195.36 1029.16 1210.71 1025.49 z" fill="rgb(243,140,80)" transform="translate(0,0)"></path>
<path d="M 1397.95 1182.18 C 1410.23 1181.14 1420.94 1184.77 1414.87 1199.35 C 1371.31 1306.01 1285.7 1390 1178.22 1431.51 C 1079.11 1470.06 968.973 1468.12 869.458 1431.94 C 766.694 1394.58 679.57 1325.47 639.326 1221.27 C 635.357 1210.63 620.032 1180.3 650.085 1186.92 C 658.337 1190.17 658.756 1199.71 661.329 1206.47 C 706.907 1327.09 818.725 1398.52 940.294 1425.03 C 1113.26 1463.62 1301.23 1377.31 1377.11 1215.56 C 1381.73 1205.71 1388.31 1186.14 1397.95 1182.18 z" fill="rgb(243,140,80)" transform="translate(0,0)"></path>
<path d="M 596.57 962.364 C 641.711 955.761 684.05 985.007 693.157 1029.89 C 692.483 1032.26 690.352 1038.95 688.633 1039.77 C 672.802 1047.36 625.496 1067.14 610.638 1071.35 C 602.178 1073.83 593.426 1075.19 584.611 1075.37 C 571.346 1075.54 565.425 1069.57 556.633 1061.07 C 557.089 1062.73 557.612 1064.37 558.201 1065.99 C 576.496 1117.31 637.215 1116.52 658.664 1073.66 C 661.364 1068.26 663.768 1064.72 669.753 1063.02 C 704.422 1062.46 703.755 1082.13 686.785 1105.22 C 671.129 1126.3 647.774 1140.34 621.812 1144.27 C 569.862 1151.84 520.896 1117.84 513.863 1065.26 C 510.73 1040.76 517.502 1016.03 532.676 996.535 C 548.836 975.904 571.014 965.54 596.57 962.364 z" fill="rgb(254,254,254)" transform="translate(0,0)"></path>
<path d="M 600.572 1000.28 C 620.87 999.086 635.541 1006.41 646.037 1023.69 C 631.765 1030.04 615.389 1036.67 600.808 1042.63 L 599.172 1043.29 L 597.671 1043.92 C 590.896 1046.64 585.216 1049.09 577.987 1050.85 C 556.775 1056.01 553.252 1034.18 564.089 1020.56 C 573.997 1008.11 584.815 1002.58 600.572 1000.28 z" fill="rgb(13,10,10)" transform="translate(0,0)"></path>
<path d="M 1296.87 1183.03 C 1331.58 1179.37 1310.07 1210.15 1300.89 1225.3 C 1272.67 1271.65 1233.41 1310.29 1186.61 1337.77 C 1111.03 1382.13 1014 1392.73 929.606 1370.69 C 846.972 1348.98 776.379 1295.27 733.413 1221.42 C 729.161 1213.74 723.702 1204.7 723.73 1195.72 C 723.773 1181.82 737.933 1181.17 745.742 1189.46 C 749.313 1193.26 751.363 1199.26 754.134 1203.65 C 756.283 1207.26 758.243 1211.17 760.344 1214.84 C 764.162 1221.43 768.297 1227.83 772.735 1234.02 C 785.161 1251.42 799.428 1265.84 815.282 1279.99 C 944.086 1394.95 1147.37 1377.74 1256.16 1243.21 C 1262.32 1235.74 1267.91 1227.82 1272.89 1219.51 C 1278.99 1209.5 1287.83 1189.13 1296.87 1183.03 z" fill="rgb(243,140,80)" transform="translate(0,0)"></path>
<path d="M 830.52 890.393 C 867.53 885.326 862.061 903.82 856.991 930.53 C 844.96 993.91 845.566 1058.13 861.239 1120.74 C 866.14 1140.31 839.001 1142.36 824.768 1143.26 C 784.295 1147.07 791.364 1131.29 797.743 1101.83 C 808.423 1051.39 808.611 994.698 798.826 944.158 C 791.47 906.17 785.37 895.393 830.52 890.393 z" fill="rgb(254,254,254)" transform="translate(0,0)"></path>
<path d="M 758.865 890.455 C 780.534 891.158 781.277 898.31 777.311 917.572 C 766.842 968.42 764.295 1021.73 770.684 1073.23 C 777.256 1126.21 802.224 1141.83 730.806 1143.91 L 720.105 1142.06 C 703.416 1128.68 714.826 1116.75 717.944 1099.32 C 725.752 1055.69 726.896 1010.9 721.584 966.899 C 720.018 949.096 713.321 930.519 711.453 913.115 C 709.132 891.492 746.157 891.023 758.865 890.455 z" fill="rgb(254,254,254)" transform="translate(0,0)"></path>
<path d="M 1004.5 962.277 C 1046.24 957.644 1070.72 991.921 1110.59 989.235 C 1123.3 988.378 1111.21 1059.18 1039.08 1017.25 C 976.301 980.755 990.778 1030.2 1010.3 1070.62 C 1029.46 1112.15 1070.24 1149.81 989.516 1143.83 C 983.478 1143.87 959.756 1142.53 959.213 1134.1 C 957.843 1112.86 964.281 1087.55 966.508 1066.11 C 969.477 1037.55 968.154 1006.59 980.159 980.413 C 984.722 970.462 994.604 965.116 1004.5 962.277 z" fill="rgb(254,254,254)" transform="translate(0,0)"></path>
<path d="M 389.799 964.146 C 420.005 960.61 443.102 980.287 470.595 988.536 C 478.383 990.873 496.189 986.089 498.536 995.687 C 501.946 1009.63 490.083 1027.06 476.656 1031.15 C 453.225 1038.28 431.382 1022.63 411.053 1013.38 C 403.413 1009.96 392.51 1004.48 384.121 1007.97 C 374.859 1012.09 374.97 1024.17 377.011 1032.39 C 380.471 1046.32 387.095 1059.5 392.987 1072.51 C 410.329 1111.15 450.758 1145.33 377.091 1144.82 C 350.566 1144.81 336.386 1142.62 343.621 1112.25 C 351.797 1077.92 350.842 1041.45 355.54 1006.72 C 358.377 985.752 368.744 970.027 389.799 964.146 z" fill="rgb(254,254,254)" transform="translate(0,0)"></path>
<path d="M 1151.86 1180.1 C 1196.85 1177.9 1144.87 1224.84 1134.39 1234.51 C 1041.75 1319.94 914.344 1304.19 831.831 1213.61 C 825.714 1207.29 810.125 1189.86 823.171 1183.26 C 838.41 1175.9 852.874 1196.69 861.99 1206.3 C 936.981 1285.3 1059.3 1283.14 1130.5 1200.59 C 1136.65 1193.45 1143.18 1184.2 1151.86 1180.1 z" fill="rgb(243,140,80)" transform="translate(0,0)"></path>
<path d="M 914.702 958.397 C 945.145 952.516 948.62 966.158 942.411 991.592 C 935.14 1023.08 930.527 1061.28 937.044 1093.12 C 945.767 1135.74 961.713 1144.87 906.678 1145.27 C 882.86 1144.9 871.506 1141.51 879.795 1115.41 C 889.105 1086.1 893.304 1048.84 885.178 1019.01 C 874.229 978.826 863.06 964.077 914.702 958.397 z" fill="rgb(254,254,254)" transform="translate(0,0)"></path>
<path d="M 402.053 883.359 C 439.336 878.353 472.051 894.919 507.19 901.922 C 517.204 903.917 535.333 891.06 541.664 899.016 C 553.847 914.323 540.308 937.594 526.674 946.947 C 510.989 958.154 498.235 958.685 480.255 956.308 C 444.917 945.88 402.921 906.276 368.756 939.566 C 365.158 943.072 358.658 948.555 354.295 950.87 C 352.64 949.639 351.473 948.009 351.353 945.833 C 349.255 907.801 365.44 888.607 402.053 883.359 z" fill="rgb(254,254,254)" transform="translate(0,0)"></path>
<path d="M 1017.6 881.325 C 1039.81 878.138 1067 885.341 1087.82 892.671 C 1101.67 897.546 1119.69 905.474 1134.13 900.099 C 1139.31 898.174 1152.36 891.808 1156.66 898.049 C 1166.61 912.49 1151.72 939.443 1138.47 947.317 C 1123.67 956.293 1111.2 956.129 1095.84 952.895 C 1066.17 945.05 1039.55 919.538 1006.54 925.146 C 992.469 927.536 981.875 943.523 970.34 949.227 C 964.23 943.913 967.122 931.09 968.496 923.78 C 973.747 895.863 991.71 885.12 1017.6 881.325 z" fill="rgb(254,254,254)" transform="translate(0,0)"></path>
<path d="M 906.27 881.071 C 924.131 877.837 941.292 889.501 944.86 907.298 C 948.427 925.095 937.088 942.472 919.361 946.373 C 907.595 948.962 895.347 944.995 887.333 935.998 C 879.319 927.002 876.788 914.379 880.715 902.988 C 884.642 891.598 894.415 883.217 906.27 881.071 z" fill="rgb(243,140,80)" transform="translate(0,0)"></path>
<path d="M 948.108 1180.09 C 962.829 1179.4 976.534 1181.97 991.506 1182.47 C 1001.32 1182.8 1022.86 1175.73 1028.25 1187.98 C 1032.09 1196.68 1023.23 1201.25 1016.35 1204.09 C 1013.14 1205.09 1010.32 1206.1 1006.99 1206.8 C 988.157 1210.64 968.64 1209.44 950.42 1203.31 C 933.69 1197.62 930.512 1187.11 948.108 1180.09 z" fill="rgb(243,140,80)" transform="translate(0,0)"></path>
<path d="M 779.583 1475.48 C 782.871 1477.16 786.218 1478.73 789.618 1480.17 C 786.65 1492.75 785.141 1502.02 783.648 1514.84 C 792.194 1506.18 800.939 1498.19 809.658 1489.73 C 812.22 1491.03 815.067 1492.33 817.528 1493.61 C 816.406 1505.45 814.477 1516.87 813.586 1528.75 C 821.327 1521.62 831.313 1510.61 838.386 1502.54 C 847.387 1507.34 848.876 1505.17 841.712 1512.46 C 831.929 1522.4 822.616 1532.63 812.733 1542.6 L 802.561 1537.73 C 804.933 1526.07 805.707 1516.8 806.507 1504.93 C 798.094 1512.23 790.039 1519.26 783.505 1528.32 C 779.792 1526.54 776.17 1524.99 772.462 1523.27 C 775.633 1507.87 777.705 1491.14 779.583 1475.48 z" fill="rgb(254,254,254)" transform="translate(0,0)"></path>
<path d="M 1297.79 902.073 C 1313.57 902.729 1319.23 913.156 1327.05 925.862 C 1334.94 938.68 1336.19 945.481 1322.01 953.002 C 1318.42 953.139 1311.42 954.099 1309.7 950.329 C 1304.1 938.059 1293.99 928.786 1287.08 918.022 L 1286.07 916.465 C 1289.63 908.703 1289.76 905.823 1297.79 902.073 z" fill="rgb(243,140,80)" transform="translate(0,0)"></path>
<path d="M 1141.68 1521.23 C 1151.86 1520.32 1149.26 1519.87 1151.76 1531.01 C 1154.08 1541.41 1156.8 1551.72 1159.92 1561.91 L 1161.03 1565.38 C 1157.67 1566.22 1154.71 1566.86 1151.25 1567.44 L 1149.21 1558.48 C 1147.58 1551.34 1146.28 1545.13 1144.15 1538.04 C 1142.61 1542.69 1136.69 1565.32 1133.71 1567.5 C 1131.77 1568.92 1115.97 1550.64 1112.48 1548.48 C 1112.09 1549.03 1112.03 1549.52 1111.79 1550.24 C 1113.58 1557.75 1116.13 1565.98 1116.91 1573.52 C 1117.31 1576.17 1109.48 1576.8 1109.26 1576.49 C 1107.47 1573.86 1105.96 1566.59 1105.2 1563.48 L 1104.23 1559.47 L 1103.26 1555.46 L 1102.8 1553.52 C 1101.12 1546.59 1092.94 1528.11 1105.02 1531 C 1108.6 1531.86 1127.08 1551.26 1130.56 1554.75 C 1133.78 1545.82 1139.26 1530.06 1141.68 1521.23 z" fill="rgb(254,254,254)" transform="translate(0,0)"></path>
<path d="M 1327.39 1433.01 C 1333.62 1432.79 1339.81 1432.26 1343.24 1438.38 C 1352.25 1454.48 1341.05 1463.21 1328.95 1470.49 C 1331.43 1474.12 1333.57 1477.61 1335.91 1481.29 C 1333.33 1483.88 1331.46 1485.29 1328.67 1487.58 C 1320.28 1475.91 1309.58 1460.89 1302.16 1448.88 C 1310.51 1442.26 1317.41 1436.89 1327.39 1433.01 z" fill="rgb(254,254,254)" transform="translate(0,0)"></path>
<path d="M 1326.58 1441.75 C 1333.93 1441.74 1338.16 1444.81 1336.77 1453.47 C 1336.14 1457.45 1327.83 1461.59 1324.39 1463.44 C 1321.36 1461.06 1316.46 1453.69 1313.99 1450.37 C 1318.93 1446.25 1321 1444.83 1326.58 1441.75 z" fill="rgb(13,10,10)" transform="translate(0,0)"></path>
<path d="M 643.894 1392.3 C 648.361 1392.77 651.516 1392.78 655.418 1395.13 C 660.153 1397.97 663.526 1402.62 664.753 1408 C 667.755 1421.46 659.466 1427.53 647.685 1430.03 C 644.358 1429.56 641.113 1429.16 638.179 1427.45 C 632.858 1424.38 628.973 1419.33 627.377 1413.4 C 624.49 1402.28 634.002 1394.49 643.894 1392.3 z" fill="rgb(254,254,254)" transform="translate(0,0)"></path>
<path d="M 644.661 1401.5 C 650.146 1400.74 655.215 1404.56 656.006 1410.04 C 656.797 1415.52 653.012 1420.61 647.536 1421.43 C 642.015 1422.26 636.875 1418.44 636.078 1412.91 C 635.281 1407.39 639.131 1402.27 644.661 1401.5 z" fill="rgb(13,10,10)" transform="translate(0,0)"></path>
<path d="M 854.992 1523.05 C 866.855 1522.29 886.2 1527.08 877.996 1548.04 C 877.043 1550.48 861.098 1544.16 856.592 1542.65 C 843.646 1538.31 856.825 1550.57 860.352 1552.98 C 863.813 1552.87 868.505 1550.53 869.841 1551.97 C 871.309 1553.67 873.355 1557.34 870.46 1558.87 C 856.643 1566.18 837.12 1550.77 842.248 1535.58 C 844.448 1529.06 849.067 1525.88 854.992 1523.05 z" fill="rgb(254,254,254)" transform="translate(0,0)"></path>
<path d="M 858.783 1529.93 C 873.792 1530.98 874.239 1542.12 868.785 1540.04 C 859.145 1537.43 846.419 1538.19 858.783 1529.93 z" fill="rgb(13,10,10)" transform="translate(0,0)"></path>
<path d="M 1189.73 1516.99 C 1202.69 1517.4 1204.83 1521.97 1210.2 1532.64 C 1209.81 1532.85 1209.43 1533.06 1209.05 1533.27 C 1204.95 1537.35 1187.4 1539.19 1184.39 1542.57 C 1181.53 1545.77 1198.42 1552.35 1202.12 1541.96 C 1202.77 1540.14 1205.67 1540.33 1207.32 1540.35 C 1207.96 1541.32 1210.8 1544.52 1209.75 1545.89 C 1204.22 1553.08 1192.54 1557.54 1183.91 1553.51 C 1178.67 1551.04 1174.61 1546.61 1172.61 1541.17 C 1168.1 1528.62 1179.42 1520.58 1189.73 1516.99 z" fill="rgb(254,254,254)" transform="translate(0,0)"></path>
<path d="M 1188.02 1524.86 C 1197.09 1525.1 1204.96 1530.88 1193.01 1533.01 L 1189.46 1533.62 C 1174.02 1539.32 1180.76 1530.63 1188.02 1524.86 z" fill="rgb(13,10,10)" transform="translate(0,0)"></path>
<path d="M 904.923 1536.17 C 913.678 1536.17 934.999 1539.78 928.446 1560.93 C 927.423 1564.24 900.658 1552.84 900.971 1557.32 C 901.441 1564.07 909.366 1565.82 914.192 1566.92 C 915.176 1566.2 917.536 1564.06 918.456 1563.9 C 919.972 1564.73 922.929 1569.35 922.351 1570.59 C 919.808 1575.33 908.755 1573.88 904.856 1572.37 C 886.677 1565.37 886.883 1543.83 904.923 1536.17 z" fill="rgb(254,254,254)" transform="translate(0,0)"></path>
<path d="M 907.964 1542.74 C 915.555 1544.24 918.054 1545.47 921.107 1552.44 C 920.643 1554.33 919.392 1554.02 917.681 1553.86 L 915.822 1553.3 C 905.844 1550.2 896.403 1551.73 907.964 1542.74 z" fill="rgb(13,10,10)" transform="translate(0,0)"></path>
<path d="M 1393.41 1390.13 C 1405.04 1390.96 1410.97 1400.82 1417.86 1410.45 C 1419.59 1412.88 1412.79 1415.34 1410.66 1415.91 C 1410.47 1416.25 1410.29 1416.65 1410.25 1417.03 C 1409.28 1425.19 1396.51 1434.06 1389.18 1427.78 C 1385.79 1424.88 1385.86 1422.28 1385.54 1418.25 L 1385.94 1417.32 C 1389.65 1408.51 1393.32 1408.17 1397.36 1402.11 C 1400.31 1397.71 1387.49 1398.77 1385.42 1404.41 C 1382.82 1411.46 1372.3 1417.51 1374.86 1405.46 C 1376.01 1400.04 1385.75 1392.14 1391.45 1390.68 L 1393.41 1390.13 z" fill="rgb(254,254,254)" transform="translate(0,0)"></path>
<path d="M 1402.19 1406.72 C 1410.93 1410.34 1403.23 1419.04 1398.27 1422.35 C 1389.87 1415.24 1393.95 1414.24 1402.19 1406.72 z" fill="rgb(13,10,10)" transform="translate(0,0)"></path>
<path d="M 1111.04 843.131 C 1120.04 842.56 1129.22 842.172 1137.46 846.111 C 1142.1 848.329 1149.7 853.712 1143.31 858.33 C 1138.57 861.753 1134.26 862.389 1128.93 863.703 L 1127.97 863.947 C 1118.51 864.538 1105.01 865.467 1096.62 860.657 C 1082.54 852.581 1105.19 844.564 1111.04 843.131 z" fill="rgb(243,140,80)" transform="translate(0,0)"></path>
<path d="M 1234.29 1500.21 C 1251.6 1500.02 1251.07 1510.38 1257.34 1523.41 C 1262.31 1532.5 1250.25 1529.93 1249.31 1531 C 1242.87 1538.37 1234.82 1541.52 1224.73 1531.12 C 1223.89 1507.81 1253.46 1518.86 1238.68 1508.39 C 1233.33 1504.6 1224.77 1517.22 1221.09 1515.18 C 1210.15 1509.12 1229.99 1501.59 1234.29 1500.21 z" fill="rgb(254,254,254)" transform="translate(0,0)"></path>
<path d="M 1244.21 1518.86 C 1254.11 1522.44 1239.91 1530.45 1236.63 1532.02 C 1228.63 1524.03 1236.38 1522.09 1244.21 1518.86 z" fill="rgb(13,10,10)" transform="translate(0,0)"></path>
<path d="M 949.265 1530.49 C 959.849 1530.67 958.236 1529.44 957.294 1539.51 C 956.632 1546.58 955.893 1553.66 955.006 1560.73 C 960.288 1556.8 969.23 1549.51 974.97 1546.24 C 976.153 1545.78 982.736 1547.56 982.862 1547.69 C 984.489 1549.42 969.304 1559.38 967.537 1560.66 C 970.03 1564.51 972.857 1568.6 975.237 1572.46 L 981.867 1583.25 L 970.292 1581.85 C 958.742 1561.9 956.471 1560.17 952.611 1578.91 C 952.075 1580.67 944.381 1578.62 944.372 1578.37 C 943.951 1567 947.146 1540.39 949.265 1530.49 z" fill="rgb(254,254,254)" transform="translate(0,0)"></path>
<path d="M 683.535 1420.72 C 686.373 1422.9 689.055 1425.15 691.823 1427.41 C 688.19 1431.75 672.037 1446.78 675.863 1451.54 C 678.845 1455.26 683.445 1455.16 687.799 1455.99 C 690.448 1453.2 702.605 1438.65 703.396 1438.81 C 716.068 1441.31 707.94 1447.52 706.089 1449.68 C 699.822 1457.43 694.387 1463.59 688.609 1471.81 C 686.516 1470.36 682.842 1468.41 681.275 1466.44 C 680.864 1465.92 682.163 1464.76 681.929 1463.59 C 681.092 1462.71 675.38 1462.03 672.566 1459.91 C 655.343 1446.9 674.42 1434.07 683.535 1420.72 z" fill="rgb(254,254,254)" transform="translate(0,0)"></path>
<path d="M 1428.05 1350.19 C 1441.8 1351.35 1445.93 1358.35 1456.68 1367.4 C 1454.71 1369.98 1452.88 1372.57 1450.89 1375.14 C 1442.93 1368.36 1428.67 1351.48 1422 1367.5 L 1420.58 1370.9 C 1423.08 1373.57 1425.63 1376.19 1428.23 1378.77 C 1431.79 1382.08 1435.49 1385.2 1439.1 1388.52 C 1437.04 1391.16 1435.14 1393.41 1432.99 1395.95 C 1428.96 1391.68 1425.66 1388.58 1421.05 1384.86 C 1416.15 1380.94 1411.36 1376.87 1406.69 1372.67 C 1407.9 1370.81 1409.57 1367.66 1411.19 1366.27 C 1412.21 1365.4 1414.14 1367.55 1414.8 1364.54 C 1416.64 1356.1 1420.1 1352.72 1428.05 1350.19 z" fill="rgb(254,254,254)" transform="translate(0,0)"></path>
<path d="M 1058.86 1547.51 C 1061.86 1548.85 1047.88 1579.82 1046.46 1584.66 C 1042.17 1596.15 1035.8 1601.63 1023.53 1596.77 C 1020.95 1596.6 1025.26 1587.68 1027.41 1589.56 C 1031.83 1593.43 1038.82 1587.42 1036.12 1580.91 C 1034.27 1577.6 1021.14 1552.09 1020.88 1549.54 C 1021.65 1548 1027.9 1549 1028.07 1549.18 C 1033.69 1554.97 1038.53 1567.28 1042.14 1574.33 C 1045.33 1565.85 1047.53 1557.33 1050.6 1548.89 C 1051.04 1547.67 1057.66 1547.63 1058.86 1547.51 z" fill="rgb(254,254,254)" transform="translate(0,0)"></path>
<path d="M 619.009 1340.36 C 622.698 1343.07 623.58 1344.65 626.544 1347.99 C 623.861 1357.37 621.394 1364.72 618.021 1373.94 C 621.709 1373.08 625.859 1371.8 629.51 1371.16 C 634.613 1370.25 641.062 1367.92 645.897 1370.55 C 646.398 1370.82 651.489 1374.36 649.823 1375.82 C 645.665 1376.98 634.138 1378.62 630.221 1379.22 L 628.316 1379.54 C 613.868 1383.09 614.812 1382.92 603.639 1392.58 C 601.503 1390.22 599.552 1388.07 597.486 1385.65 C 605.508 1377.97 608.612 1376.41 611.584 1365.38 C 613.773 1357.27 616.427 1348.37 619.009 1340.36 z" fill="rgb(254,254,254)" transform="translate(0,0)"></path>
<path d="M 997.878 1533.84 C 1001.84 1534.52 1003.94 1534.86 1007.98 1535.22 C 1007.77 1551.79 1007.23 1568.29 1007.16 1584.84 C 1003.85 1584.73 1000.54 1584.55 997.24 1584.31 L 997.878 1533.84 z" fill="rgb(254,254,254)" transform="translate(0,0)"></path>
<path d="M 724.741 1453.41 C 727.337 1454.45 731.317 1456.01 732.888 1458.62 C 733.505 1459.82 732.479 1460.82 732.444 1461.67 C 732.418 1462.32 738.788 1462.43 739.538 1462.99 C 739.975 1462.88 743.571 1463.46 743.364 1464.67 C 741.608 1474.94 736.159 1468.63 732.025 1469.01 C 727.333 1469.44 722.397 1475.29 720.058 1477.92 C 718.498 1479.94 713.385 1489.53 710.636 1487.9 C 710.184 1487.59 706.167 1484.58 706.491 1483.72 C 710.187 1473.88 719.066 1462.01 724.741 1453.41 z" fill="rgb(254,254,254)" transform="translate(0,0)"></path>
<path d="M 1260.07 1471.62 C 1263.9 1472.61 1282.94 1507.73 1284.9 1513.99 C 1285.2 1514.93 1279.96 1518.55 1279.21 1519.14 C 1278.85 1518.84 1278.43 1518.5 1278.11 1518.15 C 1275.43 1515.18 1253.69 1476.65 1254 1475.62 C 1254.49 1473.97 1258.77 1472.36 1260.07 1471.62 z" fill="rgb(254,254,254)" transform="translate(0,0)"></path>
<path d="M 1350.45 1408.73 C 1353.56 1410.67 1377.46 1439.87 1383.14 1445.57 C 1380.46 1448 1378.53 1449.62 1375.66 1451.85 C 1375.13 1451.74 1346.93 1418.61 1343.68 1414.97 C 1346.06 1412.71 1347.96 1410.9 1350.45 1408.73 z" fill="rgb(254,254,254)" transform="translate(0,0)"></path>
<metadata><recraft-signature>{"signed_by": "recraft", "signature_b64": "cs8GVNGI/pfW9RybuYQc4Nu3xZxKe7fUEhvMkcglSBQS7jqaZVgr05f6IcJtabp/YYusIBY9EiAR/UMwvKY3Aw==", "signing_algo": "Ed25519", "generation_timestamp": 1774681599, "identifier": "9727fb8a-8a56-4992-ac4e-ad138d686c4c"}</recraft-signature></metadata></svg>